<?xml version="1.0" encoding="UTF-8"?>
<svg version="1.1" viewBox="0 0 900 900" width="900" height="900" xmlns="http://www.w3.org/2000/svg">
<path transform="translate(0)" d="m0 0h900v900h-900z" fill="#FEFEFE"/>
<path transform="translate(465,2)" d="m0 0h3l6 16 5 18 2 14v24l-5 25-6 18-10 24-11 22-12 20-9 13v3l11-11 9-11 12-14 11-14 14-18 13-17 3-4h2l3 12 1 10v20l-2 16-4 16-7 20-12 23-9 14-9 12-11 13-11 12-10 10 10-4 14-8 14-11 8-7h2v-2l8-7 4-4h2v20l-3 16-5 16-7 17-12 21-10 14-9 12-12 14-1 2h-2l1 2 13-1 12-6 14-12 11-12 12-17 6-10 8-20 4-17 1-10v-14l-2-15-5-16-1-5v-12l4-11 6-9 7-7 12-8 20-9 20-8 20-9 18-8 16-8 16-7 16-8 21-10 17-9 27-16 30-19 27-18 17-12 19-14 15-12 4-2v15l-4 21-6 20-7 15-7 13-8 11-9 11-12 13-7 8-15 14-14 12-16 13-18 13-21 14-14 8 1 2 21-9 32-16 27-14 12-7 14-7 16-9 12-6-1 9-6 18-12 23-10 14-13 16-21 21-14 11-16 12-21 13-24 13-18 8-11 5-15 6h10l20-3 21-5 27-9 15-6h2l-1 5-10 17-9 12-12 14-12 12-22 18-24 16-15 9-2 1 14 3 44 7 19 12 39 26 5 8 7 15-1 8-6 19-5 5v34l14 22 10 15 5 18 8 34-2 13-8 39-2 4-26 2h-6l-5-5-10-11-7-8-9-9h-1v7l-5 5-3 2h-20l-27-9-18-7-16-12-19-14-12-9-17-13-18-14-4-3-9 3-10 5-24 11h-25l-37-1-12-1-36-13-4 1-13 10-11 9-14 11-16 13-7 5-26 9-22 8-24 8-10 2-9-1-16-5-1-3-14 5-9 2h-11l-22-5-4-4-4-6 2-9 7-5 14-7 13-7 9-17v-11l-18 4-8 1h-25l-14-1-16-6-11-6-3-10 1-11 6-12 9-10 9-7 7-11 8-16 5-5 4-5 2-6 1-15 6-12 7-2 7 1 5 3 2 5 5-1 4-2 4-8 3-3h2v-2l8-7 8-8 38-13 6-2 26 2 11 1 3 1v2l4 2 5 4-6-11v-2l-30 1h-7l1-2 14-5 18-10 21-4 2-4 9-19 5-17 2-13v-18l-3-17-6-16-6-11-10-13-8-8-5-9-1-4v-13l4-11 8-11 11-12 21-21 9-11 12-13 1-2h2l2-4 14-15 9-11 11-14 14-20 18-27 10-17 13-23 9-17z" fill="#010101"/>
<path transform="translate(421,657)" d="m0 0h41l60 1 60 5 48 5 50 8 44 9 35 9 36 12 27 11 19 10 16 10-3 1-17-8-15-6-28-9-28-7-14-4-27-6-11 3-26 7-31 6-13 2 4 3 19 10 14 9 15 12v2l-6-2-16-7-16-8-29-13-4-2-16 1-48 5-33 2-7 1 24 24 13 17 6 10 1 5-7-6-11-11-7-8-30-30-4-1h-120l-8 7-13 13-8 7-10 10-8 7-12 12-1-2 9-14 9-11 4-5 8-7 14-14 4-3-2-1-42-3-62-7-15 7-21 10-16 7-14 7-5 1 4-5 13-10 16-10 15-8 5-2-40-8-25-6-9-3-28 5-38 10-21 7-13 4-20 8-9 3 4-4 23-12 25-11 36-12 28-8 24-6 43-8 24-4 49-6 48-4 35-2z" fill="#010101"/>
<path transform="translate(415,672)" d="m0 0h61l35 1 50 3 52 5 56 7 38 6 10 2-2 2-41 7-46 6-20-8-35-12-17-5h-3l20 9 32 15 3 1v2l-15 2-45 4-17 1h-22l-12-11-16-12-9-6 28 28v2l-15 1h-78l-13-1 6-7 14-14 8-7-11 7-18 14-7 6h-24l-42-3-38-4-1-2 23-10 14-7 22-10h3v-2l-19 6-36 12-25 10-13-1-28-4-35-6-6-2v-1l35-6 55-8 38-4 38-3 33-2z" fill="#FDFDFD"/>
<path transform="translate(604,807)" d="m0 0h49l-1 8-1 2-32 1-3 3v7l31 1-1 7-3 3h-32l-2 9 1 1h35l8-9 11-14 7-9 3-5 10-4h14l5 3 3 6 9 35 1 1 5-20 5-18 2-6 2-2h38l13 1 12 4 5 4 1 6-3 7-7 5-10 3h-4l7 8 13 13v2h-31l-15-15-2-1-1 8-3 8h-54l-2-5h-29l-6 5h-65l-5-3v-9l10-35 7-5z" fill="#010101"/>
<path transform="translate(515,807)" d="m0 0h40l17 2 9 4 4 5v7l-5 6-5 2 4 6 1 4-2 5-8 7-13 4-5 1h-51l1-8 12-44z" fill="#010101"/>
<path transform="translate(423,807)" d="m0 0h31l1 4-3 6-31 1-8 4-4 8-2 7v9l3 3h19l1-9-13-1-1-2 4-8h31l6 3v8l-9 34-2 3h-25l1-6 3-11h-25l-12-5-6-5-3-5-1-9 3-8 7-8 8-6 13-5z" fill="#010101"/>
<path transform="translate(215,807)" d="m0 0h26l3 3 6 13 4-2 14-13 2-1h33l1 4-13 48-1 1h-25l1-7 9-34 1-2-8 7-10 9-4 6-6 21h-25l1-9 3-11v-6l-11-22z" fill="#010101"/>
<path transform="translate(365,807)" d="m0 0h15l1 3-8 31-4 13-5 4-9 3-9-1-6-4-13-14-4-5-2-1-4 17-2 7h-17l2-11 9-33 5-5 6-3h14l8 7 7 8 7 7h2l6-22z" fill="#010101"/>
<path transform="translate(151,496)" d="m0 0h4l-1 5-10 23-4 9-5 8h-2v2l-11 9-5 6v1h16v2l-9 5-1 3 13 3h28l20-3 20-6 15-7 9-5 8-6 7-8 1-2v-9l-4-10-3-5v-2l6 2 8 7 4 8v10l-5 10-8 9-21 12-21 9-17 5-20 2h-22l-14-2-13-5-6-5-2-5v-10l4-9 11-9 10-7 8-16 8-15z" fill="#FEFEFE"/>
<path transform="translate(130,807)" d="m0 0h46l1 4-2 5-1 1-33 1-2 9 1 1 31 1-1 8-4 2-30 1-6 19-1 1h-25l2-10 9-34 4-6 5-2z" fill="#010101"/>
<path transform="translate(184,807)" d="m0 0h22l1 5-9 33v4l12 1 1 3-2 6-2 1h-31l-5-3-1-1 1-10 11-38z" fill="#010101"/>
<path transform="translate(672,499)" d="m0 0 5 1 15 6 11 5 12 5 7 10 14 23 14 28 10 21 1 4-4-4-8-14-15-24-7-10-9-10-7-8-11-12-17-12-11-8z" fill="#FEFEFE"/>
<path transform="translate(351,573)" d="m0 0h2l-3 11-7 8-25 25-40 13-4 1v-2l20-9 21-10 35-35z" fill="#FEFEFE"/>
<path transform="translate(204,505)" d="m0 0h3l-1 5-7 9-9 6-2 1h-12l-6-4-3-3-1-6 1-1 24-3 11-3z" fill="#FEFEFE"/>
<path transform="translate(606,567)" d="m0 0 6 1 32 13 20 8 5 5 14 22 11 18-1 2-10-12-12-16-9-11-23-12-21-11-12-6z" fill="#FEFEFE"/>
<path transform="translate(404,562)" d="m0 0 9 1 31 7 24 1h18l23-6 3 1-10 4-18 6h-43l-36-12z" fill="#FEFEFE"/>
<path transform="translate(278,569)" d="m0 0 4 1-1 5-14 26-4 5-8 7-14 12-11 10-7 6-2-1 17-17 8-7 15-15 16-31z" fill="#FEFEFE"/>
<path transform="translate(679,825)" d="m0 0 2 1 4 17-1 1h-18l2-5z" fill="#FEFEFE"/>
<path transform="translate(755,817)" d="m0 0h9l6 3 1 3-5 5-4 1h-9l-1-5 2-6z" fill="#FEFEFE"/>
<path transform="translate(542,817)" d="m0 0h8l6 3 1 3-5 5-4 1h-9l-1-5 2-6z" fill="#FEFEFE"/>
<path transform="translate(535,839)" d="m0 0h11l5 3-1 5-7 3h-11l1-7z" fill="#FEFEFE"/>
<path transform="translate(718,458)" d="m0 0 4 2 10 8 3 4 3 16v5l-2-1-6-18-7-9-5-6z" fill="#FEFEFE"/>
<path transform="translate(241,466)" d="m0 0h2l5 11v2h-7l-2-6-10 1-1-2z" fill="#FEFEFE"/>
<path transform="translate(163,462)" d="m0 0 5 1 5 3v2l-5 2-5-1-5 4 2-6z" fill="#FEFEFE"/>
</svg>
